<svg preserveAspectRatio="none" overflow="visible" style="display: block;" width="123" height="70.1027" viewBox="0 0 123 70.1027" fill="none" xmlns="http://www.w3.org/2000/svg">
<path id="Vector 1194233993" d="M0.507883 68.2321C0.0271577 68.504 -0.14214 69.1141 0.129745 69.5948C0.401631 70.0755 1.01174 70.2448 1.49247 69.9729L1.00018 69.1025L0.507883 68.2321ZM123 0.102506L111.454 0L117.138 10.0509L123 0.102506ZM3.18691 69.0146C3.66764 68.7427 3.83694 68.1326 3.56505 67.6519C3.29316 67.1712 2.68305 67.0019 2.20233 67.2737L2.69462 68.1442L3.18691 69.0146ZM8.98011 63.4404C8.49938 63.7123 8.33008 64.3224 8.60197 64.8031C8.87385 65.2839 9.48396 65.4532 9.96469 65.1813L9.4724 64.3108L8.98011 63.4404ZM13.3536 63.2646C13.8343 62.9927 14.0036 62.3826 13.7317 61.9019C13.4598 61.4212 12.8497 61.2519 12.369 61.5237L12.8613 62.3942L13.3536 63.2646ZM19.1468 57.6904C18.666 57.9623 18.4967 58.5724 18.7686 59.0531C19.0405 59.5339 19.6506 59.7032 20.1314 59.4313L19.6391 58.5608L19.1468 57.6904ZM23.5202 57.5146C24.001 57.2427 24.1703 56.6326 23.8984 56.1519C23.6265 55.6712 23.0164 55.5019 22.5357 55.7737L23.028 56.6442L23.5202 57.5146ZM29.3134 51.9404C28.8327 52.2123 28.6634 52.8224 28.9353 53.3031C29.2072 53.7839 29.8173 53.9532 30.298 53.6813L29.8057 52.8108L29.3134 51.9404ZM33.6869 51.7646C34.1676 51.4927 34.3369 50.8826 34.0651 50.4019C33.7932 49.9212 33.1831 49.7519 32.7023 50.0237L33.1946 50.8942L33.6869 51.7646ZM39.4801 46.1904C38.9994 46.4623 38.8301 47.0724 39.102 47.5531C39.3739 48.0339 39.984 48.2032 40.4647 47.9313L39.9724 47.0608L39.4801 46.1904ZM43.8536 46.0146C44.3343 45.7427 44.5036 45.1326 44.2317 44.6519C43.9598 44.1712 43.3497 44.0019 42.869 44.2737L43.3613 45.1442L43.8536 46.0146ZM49.6468 40.4404C49.166 40.7123 48.9967 41.3224 49.2686 41.8031C49.5405 42.2839 50.1506 42.4532 50.6314 42.1813L50.1391 41.3108L49.6468 40.4404ZM54.0202 40.2646C54.501 39.9927 54.6703 39.3826 54.3984 38.9019C54.1265 38.4212 53.5164 38.2519 53.0357 38.5237L53.528 39.3942L54.0202 40.2646ZM59.8134 34.6904C59.3327 34.9623 59.1634 35.5724 59.4353 36.0531C59.7072 36.5339 60.3173 36.7032 60.798 36.4313L60.3057 35.5608L59.8134 34.6904ZM64.1869 34.5146C64.6676 34.2427 64.8369 33.6326 64.5651 33.1519C64.2932 32.6712 63.6831 32.5019 63.2023 32.7737L63.6946 33.6442L64.1869 34.5146ZM69.9801 28.9404C69.4994 29.2123 69.3301 29.8224 69.602 30.3031C69.8739 30.7839 70.484 30.9532 70.9647 30.6813L70.4724 29.8108L69.9801 28.9404ZM74.3536 28.7646C74.8343 28.4927 75.0036 27.8826 74.7317 27.4019C74.4598 26.9212 73.8497 26.7519 73.369 27.0237L73.8613 27.8942L74.3536 28.7646ZM80.1468 23.1904C79.6661 23.4623 79.4968 24.0724 79.7686 24.5531C80.0405 25.0339 80.6506 25.2031 81.1314 24.9313L80.6391 24.0608L80.1468 23.1904ZM84.5202 23.0146C85.001 22.7427 85.1703 22.1326 84.8984 21.6519C84.6265 21.1712 84.0164 21.0019 83.5357 21.2737L84.028 22.1442L84.5202 23.0146ZM90.3134 17.4404C89.8327 17.7123 89.6634 18.3224 89.9353 18.8031C90.2072 19.2839 90.8173 19.4532 91.298 19.1813L90.8057 18.3108L90.3134 17.4404ZM94.6869 17.2646C95.1676 16.9927 95.3369 16.3826 95.0651 15.9019C94.7932 15.4212 94.1831 15.2519 93.7023 15.5237L94.1946 16.3942L94.6869 17.2646ZM100.48 11.6904C99.9994 11.9623 99.8301 12.5724 100.102 13.0531C100.374 13.5339 100.984 13.7031 101.465 13.4313L100.972 12.5608L100.48 11.6904ZM104.854 11.5146C105.334 11.2427 105.504 10.6326 105.232 10.1519C104.96 9.67115 104.35 9.50185 103.869 9.77374L104.361 10.6442L104.854 11.5146ZM110.647 5.9404C110.166 6.21229 109.997 6.8224 110.269 7.30313C110.541 7.78385 111.151 7.95315 111.631 7.68126L111.139 6.81083L110.647 5.9404ZM115.02 5.7646C115.501 5.49271 115.67 4.8826 115.398 4.40187C115.127 3.92115 114.516 3.75185 114.036 4.02374L114.528 4.89417L115.02 5.7646ZM120.813 0.190406C120.333 0.462291 120.163 1.0724 120.435 1.55313C120.707 2.03385 121.317 2.20315 121.798 1.93127L121.306 1.06084L120.813 0.190406ZM1.00018 69.1025L1.49247 69.9729L3.18691 69.0146L2.69462 68.1442L2.20233 67.2737L0.507883 68.2321L1.00018 69.1025ZM9.4724 64.3108L9.96469 65.1813L13.3536 63.2646L12.8613 62.3942L12.369 61.5237L8.98011 63.4404L9.4724 64.3108ZM19.6391 58.5608L20.1314 59.4313L23.5202 57.5146L23.028 56.6442L22.5357 55.7737L19.1468 57.6904L19.6391 58.5608ZM29.8057 52.8108L30.298 53.6813L33.6869 51.7646L33.1946 50.8942L32.7023 50.0237L29.3134 51.9404L29.8057 52.8108ZM39.9724 47.0608L40.4647 47.9313L43.8536 46.0146L43.3613 45.1442L42.869 44.2737L39.4801 46.1904L39.9724 47.0608ZM50.1391 41.3108L50.6314 42.1813L54.0202 40.2646L53.528 39.3942L53.0357 38.5237L49.6468 40.4404L50.1391 41.3108ZM60.3057 35.5608L60.798 36.4313L64.1869 34.5146L63.6946 33.6442L63.2023 32.7737L59.8134 34.6904L60.3057 35.5608ZM70.4724 29.8108L70.9647 30.6813L74.3536 28.7646L73.8613 27.8942L73.369 27.0237L69.9801 28.9404L70.4724 29.8108ZM80.6391 24.0608L81.1314 24.9313L84.5202 23.0146L84.028 22.1442L83.5357 21.2737L80.1468 23.1904L80.6391 24.0608ZM90.8057 18.3108L91.298 19.1813L94.6869 17.2646L94.1946 16.3942L93.7023 15.5237L90.3134 17.4404L90.8057 18.3108ZM100.972 12.5608L101.465 13.4313L104.854 11.5146L104.361 10.6442L103.869 9.77374L100.48 11.6904L100.972 12.5608ZM111.139 6.81083L111.631 7.68126L115.02 5.7646L114.528 4.89417L114.036 4.02374L110.647 5.9404L111.139 6.81083Z" fill="#737373"/>
</svg>
