<svg width="764" height="148" viewBox="0 0 764 148" fill="none" xmlns="http://www.w3.org/2000/svg">
<path fill-rule="evenodd" clip-rule="evenodd" d="M66.4187 0.000634284C67.7923 -0.0136403 70.0399 0.214753 71.4135 0.510952C72.7871 0.803581 74.7957 1.45664 75.8731 1.95982C76.9506 2.45944 82.4127 6.12087 88.0033 10.0892C93.5938 14.0611 101.946 19.9494 106.555 23.1755C111.165 26.4015 115.061 29.0031 115.207 28.9531C115.353 28.9067 115.471 28.9888 115.467 29.1351C115.464 29.2814 116.548 30.195 117.876 31.1621C119.203 32.1328 121.176 33.7529 122.253 34.7629C123.331 35.7728 124.226 36.665 124.237 36.747C124.251 36.8291 124.683 37.6214 125.204 38.5028C125.724 39.3879 126.456 40.9937 126.834 42.0715C127.209 43.1528 127.63 45.0799 127.769 46.3539C127.944 47.9812 127.844 49.4729 127.444 51.35C127.127 52.8238 126.431 54.8187 125.899 55.7858C125.364 56.7565 124.208 58.291 123.323 59.201C122.335 60.2181 119.385 62.2379 115.653 64.4434C112.317 66.4168 106.616 69.7321 102.988 71.8162C99.3592 73.9003 95.4633 75.9273 94.3359 76.3234C93.2085 76.7195 91.0394 77.2263 89.5195 77.4511C87.4646 77.7509 86.0232 77.7544 83.9004 77.4547C82.3306 77.2334 80.083 76.7231 78.9057 76.3163C77.7283 75.913 75.816 75.0672 74.6565 74.4392C73.4935 73.8111 71.8202 72.6548 70.9354 71.8697C70.0506 71.0846 66.8433 67.3911 63.8107 63.6618C60.7746 59.9326 57.9954 56.5602 57.6351 56.1677C57.2747 55.7751 55.0164 53.0451 52.6225 50.1009C50.225 47.1568 46.0008 42.0179 43.2287 38.6813C40.4602 35.3446 37.681 32.172 37.053 31.6332C36.4287 31.0943 35.3941 30.5519 34.7555 30.4305C34.1168 30.3092 33.1143 30.3235 32.5256 30.4627C31.937 30.6018 28.8081 32.4968 25.5686 34.6772C20.6131 38.0104 19.3287 38.7098 17.4521 39.1059C16.2249 39.3629 14.2198 39.9802 12.9925 40.4799C11.7652 40.9759 9.73165 42.0608 8.47582 42.8887C7.21643 43.7131 5.36836 45.2975 4.37298 46.4074C3.37402 47.5172 2.08252 49.3658 0.44138 52.599L0.145262 50.9931C-0.0188521 50.1117 -0.0473937 48.2631 0.0774756 46.8892C0.205913 45.5152 0.698254 43.267 1.17276 41.893C1.64726 40.5191 2.49994 38.6741 3.07077 37.7891C3.6416 36.9076 5.0437 35.2875 6.18893 34.1919C7.3306 33.0927 11.7973 29.8667 16.1143 27.0189C20.4312 24.1711 24.6839 21.4233 25.5686 20.9094C26.4534 20.3991 28.2159 19.7103 29.4931 19.382C31.1592 18.9537 32.6148 18.8431 34.6663 18.9823C36.236 19.0894 38.5622 19.5461 39.8394 19.9958C41.1167 20.4454 43.0432 21.4696 44.1206 22.2726C45.1981 23.0755 47.2852 25.2132 48.7586 27.0225C50.2285 28.8282 51.5557 30.3056 51.702 30.3021C51.8483 30.2985 51.9767 30.4948 51.9838 30.741C51.991 30.9872 52.833 32.1934 53.8569 33.4282C54.8808 34.6594 55.837 35.6622 55.9832 35.6586C56.1295 35.6515 56.2508 35.8085 56.2508 36.0048C56.2508 36.201 57.9776 38.4564 60.0861 41.0152C62.1946 43.5774 64.0426 45.6651 64.1889 45.6544C64.3352 45.6473 64.4173 45.765 64.3673 45.9221C64.3174 46.0755 67.0074 49.5692 70.3432 53.6839C73.679 57.7985 76.972 61.7312 77.657 62.4235C78.342 63.1123 79.8689 64.1507 81.0463 64.7289C82.9479 65.6603 83.5651 65.778 86.5762 65.7887C89.516 65.803 90.2045 65.6817 91.7493 64.8966C92.7305 64.397 97.0652 61.9275 101.382 59.4044C105.699 56.8814 110.498 54.08 112.05 53.1736C113.659 52.235 115.15 51.0681 115.528 50.4578C115.906 49.8404 116.188 48.7092 116.192 47.7813C116.195 46.6322 115.913 45.7186 115.196 44.5695C114.643 43.6881 113.238 42.2285 112.067 41.3256C110.901 40.4263 106.252 37.0611 101.739 33.8457C97.2258 30.6304 88.6348 24.5708 82.6517 20.3776C74.2462 14.4929 71.3243 12.6301 69.808 12.2019C68.5094 11.8343 67.0003 11.7022 65.3484 11.8129C63.718 11.9235 62.2945 12.2661 61.2456 12.8014C60.3608 13.2546 57.8741 14.7713 55.7157 16.1773C53.5572 17.5798 51.5914 18.8431 51.3452 18.9823C51.0776 19.1322 50.15 18.579 49.0262 17.5977C47.9952 16.7019 45.8688 15.3387 44.299 14.5714C42.7292 13.8042 41.2058 13.1725 40.9097 13.1654C40.6136 13.1583 40.1355 13.0119 39.8394 12.8406C39.4149 12.5908 39.6004 12.3446 40.7313 11.638C41.5162 11.1491 44.8056 9.1007 48.0451 7.08441C51.2846 5.06812 55.0556 2.88054 56.4292 2.2239C57.8027 1.56727 60.0504 0.803581 61.424 0.528795C62.7975 0.254009 65.0452 0.0149089 66.4187 0.000634284ZM21.4658 45.6544C22.8394 45.6437 24.848 45.8935 25.9254 46.2111C27.0029 46.5287 28.4513 47.0747 29.1363 47.4245C29.8213 47.7742 30.5456 48.0668 30.7418 48.0704C30.938 48.074 31.1806 48.2238 31.277 48.4023C31.3733 48.5807 35.3869 50.9182 40.1962 53.5982C45.0054 56.2819 49.1368 58.4766 49.383 58.4801C49.6292 58.4837 49.8682 58.6158 49.9181 58.7763C49.9681 58.9334 50.9706 59.6043 52.148 60.2645C53.3324 60.9282 55.5658 62.7554 57.1427 64.3541C58.9872 66.2241 60.4607 68.1298 61.3098 69.7357C62.034 71.106 63.0508 73.6719 63.5753 75.4384C64.3245 77.9828 64.5421 79.5388 64.617 82.9326C64.6706 85.2879 64.5956 87.3755 64.4565 87.5718C64.3174 87.7681 64.0177 88.6924 63.7929 89.6238C63.5681 90.5552 63.033 92.0826 62.6049 93.014C62.1767 93.9454 61.4775 95.273 61.0529 95.9581C60.6284 96.6469 60.2181 97.3678 60.1432 97.564C60.0682 97.7603 59.0158 98.8059 57.8063 99.8837C56.5969 100.965 54.9058 102.196 54.0531 102.628C53.2004 103.056 52.0231 103.599 51.4344 103.834C50.8457 104.07 49.8004 104.362 49.1154 104.484C48.4304 104.601 46.3433 104.683 44.4774 104.662C41.8516 104.634 40.528 104.427 38.5907 103.741C37.2172 103.252 35.8115 102.749 35.469 102.617C34.8839 102.396 34.8446 102.928 34.8446 119.154L35.8828 119.957C36.4537 120.4 37.0566 120.707 37.2207 120.639C37.3848 120.575 37.6025 120.667 37.6988 120.849C37.7951 121.028 41.9301 123.694 46.8856 126.766C51.8411 129.842 56.0546 132.358 56.2508 132.358C56.447 132.358 56.6076 132.48 56.6076 132.626C56.6076 132.772 57.8527 133.665 59.3725 134.603C61.1278 135.692 62.7226 136.395 63.743 136.53C64.6777 136.659 66.0941 136.548 67.1323 136.266C68.4416 135.916 69.4013 135.31 70.7428 133.986C72.1128 132.63 72.7157 131.691 73.1581 130.217C73.6683 128.519 73.7361 126.499 73.6504 115.229C73.5577 102.51 73.5755 102.135 74.3818 99.3484C74.8385 97.7781 75.8339 95.2908 76.5974 93.8169C77.3608 92.3467 78.9128 90.1127 80.0509 88.8565C81.1854 87.6003 82.7588 86.1336 83.5437 85.5983C84.7709 84.7597 85.4452 84.5955 88.36 84.4171C90.2259 84.3029 92.7126 83.9675 93.89 83.6641C95.0673 83.3644 98.0321 82.1153 100.476 80.8841C102.92 79.6565 105.085 78.5788 105.292 78.4931C105.535 78.3897 105.567 78.6966 105.385 79.3853C105.232 79.9634 104.518 81.6407 103.801 83.111C102.977 84.8025 101.767 86.5226 100.512 87.7859C99.4199 88.8815 96.6835 90.9121 94.4251 92.2931C91.7672 93.9169 89.7158 95.4764 88.6062 96.7183C87.6608 97.771 86.5405 99.5196 86.116 100.597C85.381 102.46 85.3346 103.292 84.9351 131.823L83.9718 134.5C83.4402 135.973 82.4841 138.04 81.8454 139.092C81.2104 140.145 79.8047 141.794 78.7273 142.754C77.6498 143.717 75.8803 144.97 74.8028 145.541C73.7254 146.112 72.1199 146.844 71.2351 147.165C70.3503 147.489 68.1062 147.843 66.2403 147.95C64.2745 148.064 62.0269 147.978 60.8888 147.743C59.8114 147.522 57.9633 146.879 56.786 146.315C55.6086 145.755 50.3927 142.608 45.191 139.324C39.9893 136.041 33.0465 131.684 29.7607 129.646C26.4748 127.605 23.7027 125.735 23.6028 125.489C23.5029 125.242 23.4637 111.674 23.6064 65.6353L34.6663 71.8983L35.0444 79.1997C35.3655 85.3878 35.5368 86.7189 36.1576 87.9287C36.5607 88.7138 37.4348 89.9057 38.0984 90.5766C38.762 91.2475 39.9464 92.0754 40.7313 92.4145C41.5162 92.7535 42.8006 93.1425 43.5855 93.2781C44.5024 93.4387 45.7154 93.328 46.9748 92.9747C48.2485 92.6179 49.3366 92.0112 50.0787 91.2475C50.7066 90.598 51.5878 89.2669 52.0338 88.2855C52.7188 86.7867 52.8508 85.8981 52.8508 82.7541C52.8508 79.2497 52.7723 78.8464 51.6663 76.509C50.9028 74.8995 49.8183 73.3757 48.6231 72.2266C47.6027 71.2452 45.3693 69.6786 43.6604 68.7472C41.9515 67.8157 40.3924 67.052 40.1962 67.052C40 67.052 39.8002 66.9236 39.7502 66.7666C39.7003 66.6095 38.6193 65.9101 37.342 65.2142C36.0648 64.5183 32.2973 62.4378 28.9687 60.5928C24.0167 57.8485 22.6431 57.2383 21.4123 57.2383C20.4561 57.2383 19.5464 57.5059 18.9042 57.977C18.3512 58.3838 17.6163 59.2688 17.2738 59.9397C16.6958 61.0781 16.6494 63.3192 16.6494 91.4081C16.6494 108.042 16.5674 121.652 16.471 121.652C16.3747 121.652 15.4507 121.035 14.4196 120.282C13.3885 119.529 11.7652 118.045 10.8127 116.981C9.86009 115.921 8.54004 114.087 7.88359 112.909C7.22356 111.732 6.35305 109.483 5.9499 107.913C5.2435 105.155 5.22209 104.27 5.31485 81.5336C5.38977 63.0837 5.5075 57.9841 5.85714 57.8913C6.10331 57.8271 6.22104 57.613 6.12471 57.4167C6.02839 57.2204 6.44581 55.975 7.05232 54.651C7.77656 53.0736 8.82546 51.5962 10.0849 50.3686C11.1445 49.3373 12.6928 48.1453 13.5277 47.7207C14.3625 47.296 15.9287 46.6608 17.0062 46.3146C18.0836 45.9649 20.0922 45.6687 21.4658 45.6544ZM123.784 67.4482C123.941 67.4267 124.012 76.5232 123.948 87.661C123.848 104.298 123.734 108.152 123.306 109.258C123.02 110.001 122.667 110.6 122.521 110.597C122.374 110.593 122.332 110.75 122.432 110.946C122.528 111.143 122.089 112.306 121.45 113.534C120.758 114.861 119.249 116.806 117.704 118.351C116.281 119.775 115.078 120.907 115.029 120.864C114.979 120.824 111.967 122.577 108.339 124.761C104.711 126.945 99.3307 130.182 96.3873 131.955C93.444 133.729 91.0001 135.146 90.9573 135.106C90.9145 135.067 91.1179 133.75 91.4104 132.18C91.7065 130.61 91.9242 129.086 91.8956 128.79C91.8671 128.497 91.8599 126.649 91.9063 121.117L97.5361 117.745C100.633 115.889 104.45 113.548 106.02 112.538C107.59 111.528 109.424 110.076 110.094 109.308C110.765 108.541 111.511 107.431 111.75 106.843C111.989 106.254 112.306 105.051 112.456 104.166C112.606 103.285 112.745 96.1508 112.799 74.068L118.15 70.7777C121.094 68.9648 123.63 67.4696 123.784 67.4482Z" fill="#FF0257"></path>
<path d="M196.961 46.6659C211.315 46.6659 220.497 57.6315 220.497 75.3452C220.497 93.0588 211.315 104.024 196.961 104.024C189.15 104.024 183.451 99.8069 181.34 96.96H181.129V121H164.242V48.3529H181.129V53.7303H181.34C183.451 50.8835 189.15 46.6659 196.961 46.6659ZM192.528 91.3718C199.388 91.3718 203.61 85.889 203.61 75.3452C203.61 64.8013 199.388 59.3185 192.528 59.3185C185.667 59.3185 181.446 64.8013 181.446 75.3452C181.446 85.889 185.667 91.3718 192.528 91.3718Z" fill="white"></path>
<path d="M254.883 47.404C256.36 47.404 257.627 47.404 259.526 47.8257V62.5871H259.315C250.661 61.0056 241.479 65.7503 241.479 77.2431V102.337H224.592V48.3529H241.479V57.2098H241.69C244.328 51.1998 248.972 47.404 254.883 47.404Z" fill="white"></path>
<path d="M288.345 104.024C270.297 104.024 259.426 92.1099 259.426 75.3452C259.426 58.5805 270.297 46.6659 288.345 46.6659C306.287 46.6659 317.158 58.5805 317.158 75.3452C317.158 92.1099 306.287 104.024 288.345 104.024ZM288.345 91.3718C295.733 91.3718 300.271 85.7836 300.271 75.3452C300.271 64.9068 295.733 59.3185 288.345 59.3185C280.851 59.3185 276.313 64.9068 276.313 75.3452C276.313 85.7836 280.851 91.3718 288.345 91.3718Z" fill="white"></path>
<path d="M353.581 46.6659C367.935 46.6659 377.117 57.6315 377.117 75.3452C377.117 93.0588 367.935 104.024 353.581 104.024C345.771 104.024 340.072 99.8069 337.961 96.96H337.75V121H320.863V48.3529H337.75V53.7303H337.961C340.072 50.8835 345.771 46.6659 353.581 46.6659ZM349.148 91.3718C356.009 91.3718 360.231 85.889 360.231 75.3452C360.231 64.8013 356.009 59.3185 349.148 59.3185C342.288 59.3185 338.066 64.8013 338.066 75.3452C338.066 85.889 342.288 91.3718 349.148 91.3718Z" fill="white"></path>
<path d="M407.281 91.3718C413.086 91.3718 415.83 88.6304 416.886 85.9945H433.667C430.712 96.8546 422.269 104.024 407.598 104.024C389.656 104.024 378.785 92.2153 378.785 75.3452C378.785 58.8968 389.445 46.6659 406.648 46.6659C425.118 46.6659 434.512 60.162 434.512 79.7736H395.672C395.672 87.3652 401.265 91.3718 407.281 91.3718ZM406.648 58.2642C400.21 58.2642 395.672 62.0599 395.672 69.5461H417.625C417.625 62.0599 413.086 58.2642 406.648 58.2642Z" fill="white"></path>
<path d="M468.451 47.404C469.929 47.404 471.195 47.404 473.095 47.8257V62.5871H472.884C464.23 61.0056 455.047 65.7503 455.047 77.2431V102.337H438.16V48.3529H455.047V57.2098H455.258C457.897 51.1998 462.541 47.404 468.451 47.404Z" fill="white"></path>
<path d="M508.302 61.0055H498.909V83.3585C498.909 89.4739 501.125 89.4739 508.302 89.4739V102.127C505.241 102.759 502.603 103.286 497.853 103.286C485.505 103.286 482.022 96.7492 482.022 84.6238V61.0055H474.528V48.3529H482.022V33.2753H498.909V48.3529H508.302V61.0055Z" fill="white"></path>
<path d="M565.954 48.3529L547.589 103.392C542.945 117.204 537.879 121 526.48 121C523.631 121 520.57 120.684 517.087 119.946V107.293H517.298C521.942 108.347 525.742 107.82 527.536 105.079C529.119 102.654 528.802 99.2797 527.114 94.535L509.488 48.3529H526.375L538.618 83.7802H538.829L549.067 48.3529H565.954Z" fill="white"></path>
<path d="M601.081 39.707C593.904 39.707 591.688 39.707 591.688 46.0333V48.3529H601.081V61.0055H591.688V102.337H574.801V61.0055H566.78V48.3529H574.801V44.6626C574.801 32.5372 578.284 26 590.633 26C595.382 26 598.021 26.4218 601.081 27.0544V39.707Z" fill="white"></path>
<path d="M604.526 26.9489H621.412V102.337H604.526V26.9489Z" fill="white"></path>
<path d="M654.156 104.024C636.108 104.024 625.237 92.1099 625.237 75.3452C625.237 58.5805 636.108 46.6659 654.156 46.6659C672.098 46.6659 682.969 58.5805 682.969 75.3452C682.969 92.1099 672.098 104.024 654.156 104.024ZM654.156 91.3718C661.544 91.3718 666.082 85.7836 666.082 75.3452C666.082 64.9068 661.544 59.3185 654.156 59.3185C646.662 59.3185 642.124 64.9068 642.124 75.3452C642.124 85.7836 646.662 91.3718 654.156 91.3718Z" fill="white"></path>
<path d="M680.285 48.3529H697.172L705.299 81.2497H705.51L714.376 48.3529H729.152L738.017 81.2497H738.228L746.355 48.3529H763.242L748.15 102.337H732.318L721.869 68.1754H721.658L711.209 102.337H695.378L680.285 48.3529Z" fill="white"></path>
</svg>