<svg preserveAspectRatio="none" overflow="visible" style="display: block;" width="40" height="39.9315" viewBox="0 0 40 39.9315" fill="none" xmlns="http://www.w3.org/2000/svg">
<g id="Group">
<path id="Vector" d="M37.1938 32.3366C36.892 34.4155 35.384 36.2144 33.2723 37.0138C32.2378 37.4131 31.1177 37.5333 29.997 37.4131C28.9199 37.2933 27.8423 36.9734 26.7222 36.3745C25.1706 35.5743 23.6191 34.3356 21.8092 32.4968C24.6536 29.2591 26.3769 26.301 27.0235 23.6636C27.3253 22.4241 27.3684 21.3049 27.2392 20.2655C27.067 19.2664 26.6791 18.3468 26.0755 17.5473C24.7397 15.7488 22.4989 14.7094 19.9994 14.7094C17.4998 14.7094 15.259 15.7888 13.9232 17.5473C13.3196 18.3468 12.9321 19.2664 12.7595 20.2655C12.5873 21.3049 12.6304 22.4641 12.9752 23.6636C13.6214 26.301 15.3882 29.2991 18.1895 32.5363C16.4227 34.3755 14.8281 35.6146 13.2766 36.414C12.1564 37.0138 11.0788 37.3336 10.0017 37.453C8.83802 37.5732 7.71741 37.4131 6.72638 37.0537C4.61474 36.2543 3.10667 34.455 2.80488 32.3766C2.67573 31.3775 2.76183 30.3784 3.19277 29.2591C3.32192 28.859 3.53761 28.4601 3.75286 27.9802C4.05465 27.3409 4.39948 26.6608 4.74389 25.9812L4.78737 25.9017C7.76046 19.9456 10.9497 13.8701 14.268 7.95468L14.3972 7.7143C14.742 7.11533 15.0864 6.47603 15.4317 5.87627C15.7761 5.23657 16.164 4.6368 16.638 4.1169C17.5429 3.15736 18.7496 2.63785 20.0855 2.63785C21.4213 2.63785 22.628 3.15736 23.533 4.1169C24.007 4.6368 24.3948 5.23657 24.7397 5.87627C25.0845 6.47603 25.4289 7.11533 25.7738 7.7143L25.9033 7.95468C29.1782 13.91 32.3674 19.9855 35.3409 25.9417V25.9812C35.6858 26.6209 35.9871 27.3409 36.332 27.9802C36.5476 28.4601 36.7629 28.859 36.892 29.2591C37.2369 30.2982 37.366 31.298 37.1938 32.3366ZM19.9994 30.4579C17.6725 27.7402 16.164 25.1818 15.6469 23.0239C15.4317 22.1043 15.3882 21.3049 15.5178 20.5853C15.6039 19.9456 15.8626 19.3858 16.207 18.9058C17.0258 17.8277 18.4048 17.1468 19.9994 17.1468C21.594 17.1468 23.0159 17.7869 23.7917 18.9058C24.1361 19.3858 24.3948 19.9456 24.4809 20.5853C24.6101 21.3049 24.567 22.1442 24.3518 23.0239C23.8348 25.1422 22.3263 27.7002 19.9994 30.4579ZM39.4346 28.3795C39.2194 27.8999 39.0037 27.3804 38.7884 26.9407C38.4436 26.2216 38.0988 25.5416 37.797 24.9019L37.7539 24.8623C34.7808 18.8663 31.5916 12.7907 28.2302 6.79588L28.1011 6.5555C27.7562 5.95573 27.4114 5.31603 27.067 4.67674C26.6356 3.95678 26.2047 3.19809 25.5155 2.47813C24.1361 0.879284 22.154 0 20.0424 0C17.8877 0 15.9487 0.879284 14.5263 2.39866C13.8801 3.11782 13.4061 3.87731 12.9752 4.59727C12.6304 5.23657 12.2855 5.87627 11.9407 6.47603L11.8115 6.71522C8.49361 12.7109 5.26136 18.7868 2.28784 24.7825L2.24479 24.8623C1.94301 25.5016 1.59817 26.1809 1.25333 26.9008C1.03808 27.3409 0.822395 27.8204 0.607141 28.3399C0.0466199 29.8186 -0.125583 31.2178 0.0896707 32.6565C0.56409 35.6545 2.71878 38.173 5.6923 39.2918C6.81248 39.7319 7.97614 39.9315 9.18285 39.9315C9.52769 39.9315 9.95863 39.8916 10.3035 39.8513C11.7254 39.6912 13.1904 39.2523 14.6124 38.4924C16.3796 37.5732 18.0604 36.2543 19.9563 34.3356C21.8523 36.2543 23.576 37.5732 25.2998 38.4924C26.7222 39.2523 28.1872 39.6912 29.6092 39.8513C29.954 39.8916 30.3849 39.9315 30.7298 39.9315C31.9365 39.9315 33.1428 39.7319 34.2203 39.2918C37.2369 38.173 39.3485 35.6146 39.8225 32.6565C40.1674 31.2573 39.9947 29.8589 39.4346 28.3795Z" fill="#FF385C"/>
</g>
</svg>
