<svg preserveAspectRatio="none" overflow="visible" style="display: block;" width="14.1667" height="14.8333" viewBox="0 0 14.1667 14.8333" fill="none" xmlns="http://www.w3.org/2000/svg">
<g id="elements">
<path id="Vector" d="M11.0833 0.75V2.08333M3.08333 0.75V2.08333" stroke="#AEB9E1" stroke-width="1.5" stroke-linecap="round" stroke-linejoin="round"/>
<path id="Vector_2" d="M7.08034 8.08333H7.08632M7.08034 10.75H7.08632M9.74402 8.08333H9.75M4.41667 8.08333H4.42265M4.41667 10.75H4.42265" stroke="#AEB9E1" stroke-width="2" stroke-linecap="round" stroke-linejoin="round"/>
<path id="Vector_3" d="M1.41667 4.75H12.75" stroke="#AEB9E1" stroke-width="1.5" stroke-linecap="round" stroke-linejoin="round"/>
<path id="Vector_4" d="M0.750001 7.57883C0.750001 4.67396 0.750001 3.22152 1.58475 2.31909C2.41949 1.41667 3.763 1.41667 6.45 1.41667H7.71667C10.4037 1.41667 11.7472 1.41667 12.5819 2.31909C13.4167 3.22152 13.4167 4.67396 13.4167 7.57883V7.92117C13.4167 10.826 13.4167 12.2785 12.5819 13.1809C11.7472 14.0833 10.4037 14.0833 7.71667 14.0833H6.45C3.763 14.0833 2.41949 14.0833 1.58475 13.1809C0.750001 12.2785 0.750001 10.826 0.750001 7.92117V7.57883Z" stroke="#AEB9E1" stroke-width="1.5" stroke-linecap="round" stroke-linejoin="round"/>
<path id="Vector_5" d="M1.08333 4.75H13.0833" stroke="#AEB9E1" stroke-width="1.5" stroke-linecap="round" stroke-linejoin="round"/>
</g>
</svg>
